HIERARCHY
ROOT Hips
{
	OFFSET 0.00000 0.00000 0.00000
	CHANNELS 6 Xposition Yposition Zposition Zrotation Yrotation Xrotation 
	JOINT LHipJoint
	{
		OFFSET 0 0 0
		CHANNELS 3 Zrotation Yrotation Xrotation
		JOINT LeftUpLeg
		{
			OFFSET 1.85742 -1.74412 1.01653
			CHANNELS 3 Zrotation Yrotation Xrotation
			JOINT LeftLeg
			{
				OFFSET 2.54803 -7.00067 0.00000
				CHANNELS 3 Zrotation Yrotation Xrotation
				JOINT LeftFoot
				{
					OFFSET 2.51202 -6.90173 0.00000
					CHANNELS 3 Zrotation Yrotation Xrotation
					JOINT LeftToeBase
					{
						OFFSET 0.17547 -0.48209 1.64281
						CHANNELS 3 Zrotation Yrotation Xrotation
						End Site
						{
							OFFSET 0.00000 -0.00000 0.86587
						}
					}
				}
			}
		}
	}
	JOINT RHipJoint
	{
		OFFSET 0 0 0
		CHANNELS 3 Zrotation Yrotation Xrotation
		JOINT RightUpLeg
		{
			OFFSET -1.95533 -1.74413 1.01654
			CHANNELS 3 Zrotation Yrotation Xrotation
			JOINT RightLeg
			{
				OFFSET -2.49465 -6.85400 0.00000
				CHANNELS 3 Zrotation Yrotation Xrotation
				JOINT RightFoot
				{
					OFFSET -2.54783 -7.00010 0.00000
					CHANNELS 3 Zrotation Yrotation Xrotation
					JOINT RightToeBase
					{
						OFFSET -0.18513 -0.50864 1.69288
						CHANNELS 3 Zrotation Yrotation Xrotation
						End Site
						{
							OFFSET -0.00000 -0.00000 0.89242
						}
					}
				}
			}
		}
	}
	JOINT LowerBack
	{
		OFFSET 0 0 0
		CHANNELS 3 Zrotation Yrotation Xrotation
		JOINT Spine
		{
			OFFSET 0.02173 2.16290 -0.15998
			CHANNELS 3 Zrotation Yrotation Xrotation
			JOINT Spine1
			{
				OFFSET 0.00940 2.17323 -0.00467
				CHANNELS 3 Zrotation Yrotation Xrotation
				JOINT Neck
				{
					OFFSET 0 0 0
					CHANNELS 3 Zrotation Yrotation Xrotation
					JOINT Neck1
					{
						OFFSET 0.01475 1.85823 0.31113
						CHANNELS 3 Zrotation Yrotation Xrotation
						JOINT Head
						{
							OFFSET 0.01902 1.88783 -0.37187
							CHANNELS 3 Zrotation Yrotation Xrotation
							End Site
							{
								OFFSET 0.00489 1.93211 -0.16169
							}
						}
					}
				}
				JOINT LeftShoulder
				{
					OFFSET 0 0 0
					CHANNELS 3 Zrotation Yrotation Xrotation
					JOINT LeftArm
					{
						OFFSET 3.34199 1.32384 -0.07862
						CHANNELS 3 Zrotation Yrotation Xrotation
						JOINT LeftForeArm
						{
							OFFSET 5.27950 -0.00000 0.00000
							CHANNELS 3 Zrotation Yrotation Xrotation
							JOINT LeftHand
							{
								OFFSET 3.53504 -0.00000 0.00000
								CHANNELS 3 Zrotation Yrotation Xrotation
								JOINT LeftFingerBase
								{
									OFFSET 0 0 0
									CHANNELS 3 Zrotation Yrotation Xrotation
									JOINT LeftHandIndex1
									{
										OFFSET 0.66795 -0.00000 0.00000
										CHANNELS 3 Zrotation Yrotation Xrotation
										End Site
										{
											OFFSET 0.53852 -0.00000 0.00000
										}
									}
								}
								JOINT LThumb
								{
									OFFSET 0 0 0
									CHANNELS 3 Zrotation Yrotation Xrotation
									End Site
									{
										OFFSET 0.54674 -0.00000 0.54674
									}
								}
							}
						}
					}
				}
				JOINT RightShoulder
				{
					OFFSET 0 0 0
					CHANNELS 3 Zrotation Yrotation Xrotation
					JOINT RightArm
					{
						OFFSET -3.16149 1.45719 -0.50507
						CHANNELS 3 Zrotation Yrotation Xrotation
						JOINT RightForeArm
						{
							OFFSET -5.25035 -0.00000 0.00000
							CHANNELS 3 Zrotation Yrotation Xrotation
							JOINT RightHand
							{
								OFFSET -3.58884 -0.00000 0.00000
								CHANNELS 3 Zrotation Yrotation Xrotation
								JOINT RightFingerBase
								{
									OFFSET 0 0 0
									CHANNELS 3 Zrotation Yrotation Xrotation
									JOINT RightHandIndex1
									{
										OFFSET -0.77924 -0.00000 0.00000
										CHANNELS 3 Zrotation Yrotation Xrotation
										End Site
										{
											OFFSET -0.62824 -0.00000 0.00000
										}
									}
								}
								JOINT RThumb
								{
									OFFSET 0 0 0
									CHANNELS 3 Zrotation Yrotation Xrotation
									End Site
									{
										OFFSET -0.63783 -0.00000 0.63783
									}
								}
							}
						}
					}
				}
			}
		}
	}
}
MOTION
Frames: 6
Frame Time: .0083333
12.2195 17.5586 -1.7820 20.1404 -132.4900 12.1060 0.0000 0.0000 0.0000 0.8500 -10.8050 -50.0308 4.9758 13.3565 40.7179 0.8959 -5.3746 -16.8906 4.4956 -12.7922 -38.5955 0.0000 0.0000 0.0000 21.1272 8.8387 -23.4587 -0.9246 -6.1260 17.1504 -0.1189 -3.2078 -8.5066 -0.0673 1.6743 -4.6065 -7.2155 4.8542 24.3162 -7.7204 2.5589 6.7677 -5.0931 0.7595 -6.0108 6.7758 12.9886 -21.2297 -12.8068 19.5771 26.9758 -2.3671 7.2499 15.0522 0.0000 0.0000 0.0000 -67.8216 -56.2274 12.0199 16.9046 -26.7318 -4.0443 -0.0000 0.0000 -53.5614 41.4758 73.2255 40.2432 -7.1250 0.0000 -0.0000 -145.4994 -71.1470 157.6888 0.0000 0.0000 0.0000 74.5084 30.7334 75.2972 -109.7770 58.4693 -77.0393 0.0000 -0.0000 -25.9846 -2.2581 -0.0100 0.0004 7.1250 -0.0000 -0.0000 18.8796 -29.6834 7.4217
12.2718 17.5492 -1.7950 19.8736 -132.3430 12.2415 0.0000 0.0000 0.0000 0.6829 -10.6421 -50.1395 4.9667 13.3462 40.6786 0.8926 -5.6537 -16.8514 4.6570 -12.9868 -39.3190 0.0000 0.0000 0.0000 20.8324 8.8564 -23.6945 -0.9373 -6.1666 17.2686 -0.1087 -3.6384 -8.6411 -0.1070 2.1090 -5.8070 -7.8984 4.4589 24.1497 -7.1379 2.0091 6.8505 -3.8766 0.5083 -5.9006 5.7385 13.4012 -21.2719 -13.1483 20.5910 26.8113 -2.1083 7.5269 15.0450 0.0000 0.0000 0.0000 -68.1622 -55.2684 10.3248 17.2496 -27.1856 -4.2007 -0.0000 0.0000 -54.1896 43.0169 71.2413 41.4607 -7.1250 0.0000 -0.0000 -146.9674 -72.4944 157.7649 0.0000 0.0000 0.0000 73.4053 31.1584 76.7144 -110.3186 58.3811 -77.5008 0.0000 -0.0000 -26.3963 -2.1958 -0.0935 0.0036 7.1250 -0.0000 -0.0000 18.9418 -29.7607 7.4117
12.3294 17.5389 -1.8104 19.6176 -132.1910 12.2932 0.0000 0.0000 0.0000 0.4739 -10.4137 -50.1663 4.9623 13.3412 40.6596 0.8954 -5.9460 -16.8743 4.9486 -13.3257 -40.6003 0.0000 0.0000 0.0000 20.5090 9.0228 -23.7276 -0.9395 -6.1739 17.2897 -0.0913 -4.2726 -8.8346 -0.0941 1.9781 -5.4451 -7.8357 4.4078 24.1716 -7.0610 1.9671 6.9781 -3.8092 0.4820 -5.7714 5.7386 13.4312 -21.4991 -13.3912 20.7338 26.9293 -2.1605 7.5287 15.2089 -0.0000 -0.0000 0.0000 -68.9164 -55.0534 10.2250 17.1959 -27.1153 -4.1762 -0.0000 0.0000 -52.8240 39.7772 72.5184 38.4512 -7.1250 0.0000 -0.0000 -144.1105 -71.8793 156.1697 -0.0000 -0.0000 0.0000 72.7300 30.9968 76.6482 -110.6837 58.3201 -77.8115 0.0000 -0.0000 -26.5586 -2.0877 -0.2231 0.0081 7.1250 -0.0000 -0.0000 19.0474 -29.8801 7.3997
12.3918 17.5298 -1.8290 19.3947 -132.0610 12.3160 0.0000 0.0000 0.0000 0.3813 -10.3370 -50.1823 4.9555 13.3336 40.6303 0.8865 -5.8574 -16.7905 5.2704 -13.6820 -41.9783 0.0000 0.0000 0.0000 20.2421 9.2610 -23.6607 -0.9249 -6.1268 17.1528 -0.0498 -5.1607 -8.7852 -0.1444 2.4493 -6.7490 -7.7914 4.3624 24.1998 -7.0124 1.9230 7.0554 -3.7652 0.4573 -5.7008 5.8159 13.4597 -21.5674 -13.5437 20.8133 27.0364 -2.2120 7.5340 15.3204 0.0000 0.0000 0.0000 -69.5793 -54.8494 10.4131 17.1025 -26.9928 -4.1338 -0.0000 0.0000 -52.6637 38.7465 72.8467 37.4806 -7.1250 0.0000 -0.0000 -143.2969 -71.7246 155.7063 0.0000 0.0000 0.0000 72.1196 30.7726 76.6288 -110.9661 58.2721 -78.0518 0.0000 -0.0000 -26.7262 -2.1226 -0.1956 0.0072 7.1250 -0.0000 -0.0000 19.0160 -29.8551 7.3983
12.4540 17.5212 -1.8526 19.1870 -131.9540 12.3020 0.0000 0.0000 0.0000 0.4662 -10.4614 -50.1609 4.9523 13.3298 40.6161 0.8646 -5.7378 -16.5799 5.2524 -13.6625 -41.9019 0.0000 0.0000 0.0000 20.2306 9.0788 -23.7182 -0.9041 -6.0596 16.9575 0.0075 -5.8378 -8.1124 -0.6938 5.3247 -14.8369 -7.7366 4.3090 24.2498 -7.0030 1.8625 7.0929 -3.7687 0.4263 -5.6838 5.8812 13.4781 -21.4921 -13.5366 20.8230 27.1223 -2.2224 7.5417 15.3522 0.0000 0.0000 0.0000 -70.1551 -54.4928 11.1459 17.1195 -27.0151 -4.1415 -0.0000 0.0000 -54.1165 41.6515 71.5674 40.1583 -7.1250 0.0000 -0.0000 -145.7059 -72.4136 156.9194 0.0000 0.0000 0.0000 71.6631 30.5125 76.7042 -111.0799 58.2525 -78.1486 0.0000 -0.0000 -26.7780 -2.3462 0.0367 -0.0015 7.1250 -0.0000 -0.0000 18.8047 -29.6416 7.4091
12.5183 17.5248 -1.8790 18.9083 -131.8540 12.2947 0.0000 0.0000 0.0000 0.6077 -10.6837 -50.0501 4.9491 13.3262 40.6023 0.8361 -5.9681 -16.3011 4.7675 -13.1171 -39.8086 0.0000 0.0000 0.0000 19.6431 10.0176 -23.0779 -0.8831 -5.9904 16.7567 0.0002 -6.2380 -8.8937 -0.3307 3.6958 -10.2225 -7.5878 4.3182 24.3388 -7.0648 1.8857 7.1571 -3.9305 0.4316 -5.6502 5.9198 13.4283 -21.5272 -13.3740 20.7152 27.3559 -2.1918 7.5022 15.4307 -0.0000 0.0000 0.0000 -70.7589 -54.2453 11.7828 17.0367 -26.9062 -4.1039 -0.0000 0.0000 -54.2001 41.0728 71.8435 39.6291 -7.1250 0.0000 -0.0000 -145.1897 -72.2651 156.6565 -0.0000 0.0000 0.0000 71.2760 30.1608 76.5047 -111.0853 58.2516 -78.1532 0.0000 -0.0000 -26.6964 -2.3484 0.2171 -0.0089 7.1250 -0.0000 -0.0000 18.7701 -29.4707 7.4752
